<svg viewBox="0 0 16 16" fill="none" xmlns="http://www.w3.org/2000/svg">
<path fill-rule="evenodd" clip-rule="evenodd" d="M8 15C11.866 15 15 11.866 15 8C15 4.13401 11.866 1 8 1C4.13401 1 1 4.13401 1 8C1 11.866 4.13401 15 8 15ZM12.06 5.9989C12.3355 5.68963 12.3082 5.21554 11.9989 4.94001C11.6896 4.66447 11.2155 4.69182 10.94 5.0011L7.00923 9.41319L5.02553 7.46491C4.73001 7.17467 4.25516 7.17895 3.96491 7.47447C3.67467 7.76999 3.67895 8.24484 3.97447 8.53509L6.51992 11.0351C6.66635 11.1789 6.86531 11.2564 7.07044 11.2496C7.27556 11.2427 7.46892 11.1521 7.60545 10.9989L12.06 5.9989Z" fill="currentColor"/>
</svg>
